<svg xmlns="http://www.w3.org/2000/svg" viewBox="0 0 248.74 235.76"><defs><style>.cls-1{fill:#0080ff;}.cls-2{fill:#23314a;}</style></defs><title>Acceptto19-Navy-Icon</title><g id="Layer_2" data-name="Layer 2"><g id="Layer_1-2" data-name="Layer 1"><rect class="cls-1" x="105.51" y="116.51" width="45.24" height="3.64" transform="translate(-44.58 94.04) rotate(-34.72)"/><path class="cls-1" d="M221.58,97.91a27.17,27.17,0,1,1,26.61-21.76h0A27.2,27.2,0,0,1,221.58,97.91ZM221.53,50a20.7,20.7,0,1,0,20.33,24.82h0a20.73,20.73,0,0,0-16.17-24.4A21,21,0,0,0,221.53,50Z"/><path class="cls-1" d="M221.58,97.91a27.17,27.17,0,1,1,26.61-21.76h0A27.2,27.2,0,0,1,221.58,97.91ZM221.53,50a20.7,20.7,0,1,0,20.33,24.82h0a20.73,20.73,0,0,0-16.17-24.4A21,21,0,0,0,221.53,50Z"/><path class="cls-1" d="M227.94,106.51a111,111,0,0,1-1.67,33.36A110.59,110.59,0,0,1,25.7,179,110.57,110.57,0,0,1,139.89,9.49a109.74,109.74,0,0,1,58.89,33c.87-.7,1.78-1.37,2.73-2a37.57,37.57,0,0,1,3.46-2,117.88,117.88,0,0,0-202.58,56,117.86,117.86,0,0,0,92.06,139,119.15,119.15,0,0,0,23.69,2.39A117.94,117.94,0,0,0,233.4,141.31,118.51,118.51,0,0,0,235,104.47,36.08,36.08,0,0,1,227.94,106.51Z"/><polygon class="cls-1" points="81.21 165.99 78.8 144.53 59.77 131.75 51.31 105.75 64.09 68.38 98.93 49.56 138.63 54.46 157.59 77.14 162.03 102.12 145 107.19 143.97 103.71 157.88 99.57 154.18 78.73 136.76 57.89 99.63 53.31 67.07 70.91 55.14 105.77 62.84 129.43 82.22 142.45 84.37 161.58 99.7 158.23 105.53 130.84 109.08 131.59 102.77 161.27 81.21 165.99"/><rect class="cls-1" x="114.49" y="67.08" width="30.18" height="3.63" transform="translate(1.81 141.1) rotate(-57.47)"/><rect class="cls-1" x="121.37" y="77.96" width="34.61" height="3.63" transform="translate(-7.68 15.16) rotate(-6.09)"/><rect class="cls-1" x="131.16" y="76.97" width="3.63" height="33.14" transform="translate(-27.65 118.64) rotate(-44.01)"/><rect class="cls-1" x="108.56" y="47.8" width="3.63" height="37.46" transform="matrix(0.81, -0.59, 0.59, 0.81, -17.96, 78.3)"/><rect class="cls-1" x="73.79" y="66.33" width="3.63" height="33.7" transform="translate(-34.66 61.34) rotate(-36.53)"/><rect class="cls-1" x="52.61" y="99.43" width="33.65" height="3.63" transform="translate(-24.62 22.34) rotate(-15.56)"/><rect class="cls-1" x="52.63" y="111.84" width="41.7" height="3.63" transform="translate(-61.7 107.01) rotate(-54.3)"/><rect class="cls-1" x="59.55" y="118.29" width="47.04" height="3.63" transform="translate(-45.38 189.59) rotate(-83.74)"/><rect class="cls-1" x="68.81" y="72.27" width="47.3" height="3.63" transform="translate(-5.14 141.25) rotate(-73.24)"/><rect class="cls-1" x="84.11" y="87.36" width="38.88" height="3.63" transform="translate(-26.52 47.27) rotate(-22.88)"/><rect class="cls-1" x="130.01" y="92.64" width="3.63" height="25.32" transform="translate(25.04 235.94) rotate(-89.36)"/><rect class="cls-1" x="98.92" y="116.37" width="28.62" height="3.63" transform="translate(-41.25 172.27) rotate(-65.52)"/><rect class="cls-1" x="100.59" y="83.66" width="3.63" height="34.57" transform="translate(-20.48 175.62) rotate(-75.87)"/><rect class="cls-1" x="79.17" y="135.54" width="29.47" height="3.63" transform="translate(-48.69 51.61) rotate(-24.62)"/><rect class="cls-1" x="108.49" y="91.57" width="23.66" height="3.63" transform="translate(15.66 204.05) rotate(-84.42)"/><rect class="cls-1" x="94.66" y="93.61" width="3.63" height="40.73" transform="translate(-45.85 68.78) rotate(-32.14)"/><rect class="cls-1" x="74.66" y="145.69" width="40.77" height="3.63" transform="translate(-79.96 134.74) rotate(-53.03)"/><circle class="cls-2" cx="65.97" cy="70.1" r="3.54"/><circle class="cls-2" cx="53.9" cy="105.73" r="2.8"/><circle class="cls-2" cx="107.31" cy="131.22" r="4.96"/><circle class="cls-2" cx="82.79" cy="163.79" r="2.8"/><circle class="cls-2" cx="81.34" cy="142.86" r="4.1"/><circle class="cls-2" cx="143.9" cy="105.51" r="4.5"/><circle class="cls-2" cx="101.23" cy="159.75" r="2.8"/><circle class="cls-2" cx="118.92" cy="105.49" r="3.25"/><circle class="cls-2" cx="159.91" cy="100.93" r="3.12"/><circle class="cls-2" cx="137.7" cy="56.18" r="2.8"/><circle class="cls-2" cx="99.28" cy="51.44" r="4.34"/><circle class="cls-2" cx="155.87" cy="77.73" r="4.34"/><circle class="cls-2" cx="61.31" cy="130.59" r="4.34"/><circle class="cls-2" cx="121.5" cy="82.28" r="5.11"/><circle class="cls-2" cx="85.02" cy="97.49" r="6.82"/><path class="cls-2" d="M168.9,192h-30v-4.84h30a18.28,18.28,0,0,0,11.77-4.9c2.36-2.51,2.13-7,1.67-9l0-.11a25,25,0,0,1-.67-5c0-.37,0-1.16,0-2.14.14-2.28.33-5.41,2.26-8.11.19-.27.4-.53.61-.8a6.51,6.51,0,0,0,1.23-2,1.71,1.71,0,0,1,.07-.18,5.83,5.83,0,0,0-2.63-.89l-7-1.26,6.33-3.28c4.46-2.3,5.44-4,5.64-4.44a10.48,10.48,0,0,0-.64-.88,12.46,12.46,0,0,1-2.84-6.09,11.16,11.16,0,0,1,.77-6.8c1.34-2.7,4.2-3.83,6.71-4.82,4-1.57,4.93-2.28,4.58-4.64-.28-1.83-3.41-4.72-6.44-7.52a59.63,59.63,0,0,1-8.19-8.65,47.49,47.49,0,0,1-8.93-26.32c-.07-1-.13-1.92-.22-2.43-4.84-26.15-28-41.48-63.48-42.05h-1.24c-40.19,0-68.49,32.1-69.82,62.51-1.13,25.86,6.47,36.75,14.53,48.29,7.38,10.57,15,21.5,15,44V192H63.12v-2.42c0-20.93-6.87-30.77-14.15-41.19-8.16-11.69-16.59-23.77-15.39-51.28C35,64.44,65.28,30,108.24,30h1.32c38,.62,62.86,17.39,68.16,46a28.5,28.5,0,0,1,.3,3,43,43,0,0,0,8,23.83,55.86,55.86,0,0,0,7.54,7.91c4,3.68,7.41,6.85,7.94,10.37,1,6.49-4.18,8.52-7.59,9.86-1.79.7-3.64,1.43-4.15,2.46a6.64,6.64,0,0,0-.32,3.92,7.75,7.75,0,0,0,1.88,3.85c.92,1.18,2.06,2.66,1.58,4.77-.4,1.78-1.74,3.54-4,5.24a4.71,4.71,0,0,1,1.8,3.71,4.88,4.88,0,0,1-.42,1.85,11.27,11.27,0,0,1-2,3.37l-.45.58c-1.12,1.58-1.24,3.62-1.36,5.6a16.33,16.33,0,0,0,0,1.67A19.8,19.8,0,0,0,187,172l0,.15c.86,3.85.63,9.66-2.87,13.39A23,23,0,0,1,168.9,192Z"/><path class="cls-2" d="M214.51,224.81a10.95,10.95,0,1,1,10.94,10.95A11,11,0,0,1,214.51,224.81Zm1,0a10,10,0,1,0,10-10A10,10,0,0,0,215.47,224.81ZM230.1,222a3,3,0,0,1-2.35,3.21l3.1,5.34a.78.78,0,0,1-.54.16,1.35,1.35,0,0,1-.58-.11l-3-5.29h-4v5.29a1.1,1.1,0,0,1-1,0V218.51h4.59C228.92,218.51,230.1,219.74,230.1,222Zm-7.37,2.41h3.68c2,0,2.67-.86,2.67-2.41,0-1.71-.69-2.56-2.67-2.56h-3.68Z"/></g></g></svg>